<?xml version="1.0" encoding="UTF-8" standalone="no"?>
<!-- Created with Inkscape (http://www.inkscape.org/) -->

<svg
   width="2560"
   height="1440"
   viewBox="0 0 677.33334 381"
   version="1.1"
   id="svg275"
   xmlns="http://www.w3.org/2000/svg"
   xmlns:svg="http://www.w3.org/2000/svg">
  <defs
     id="defs272">
    <marker
       style="overflow:visible"
       id="marker2054"
       refX="0"
       refY="0"
       orient="auto">
      <path
         transform="matrix(0.8,0,0,0.8,10,0)"
         style="fill:context-stroke;fill-rule:evenodd;stroke:context-stroke;stroke-width:1pt"
         d="M 0,0 5,-5 -12.5,0 5,5 Z"
         id="path2052" />
    </marker>
    <marker
       style="overflow:visible"
       id="Arrow1Lstart"
       refX="0"
       refY="0"
       orient="auto">
      <path
         transform="matrix(0.8,0,0,0.8,10,0)"
         style="fill:context-stroke;fill-rule:evenodd;stroke:context-stroke;stroke-width:1pt"
         d="M 0,0 5,-5 -12.5,0 5,5 Z"
         id="path1722" />
    </marker>
    <marker
       style="overflow:visible"
       id="marker201"
       refX="0"
       refY="0"
       orient="auto">
      <path
         transform="matrix(0.8,0,0,0.8,10,0)"
         style="fill:context-stroke;fill-rule:evenodd;stroke:context-stroke;stroke-width:1pt"
         d="M 0,0 5,-5 -12.5,0 5,5 Z"
         id="path199" />
    </marker>
    <marker
       style="overflow:visible"
       id="marker205"
       refX="0"
       refY="0"
       orient="auto">
      <path
         transform="matrix(0.8,0,0,0.8,10,0)"
         style="fill:context-stroke;fill-rule:evenodd;stroke:context-stroke;stroke-width:1pt"
         d="M 0,0 5,-5 -12.5,0 5,5 Z"
         id="path203" />
    </marker>
    <marker
       style="overflow:visible"
       id="marker209"
       refX="0"
       refY="0"
       orient="auto">
      <path
         transform="matrix(0.8,0,0,0.8,10,0)"
         style="fill:context-stroke;fill-rule:evenodd;stroke:context-stroke;stroke-width:1pt"
         d="M 0,0 5,-5 -12.5,0 5,5 Z"
         id="path207" />
    </marker>
    <marker
       style="overflow:visible"
       id="marker213"
       refX="0"
       refY="0"
       orient="auto">
      <path
         transform="matrix(0.8,0,0,0.8,10,0)"
         style="fill:context-stroke;fill-rule:evenodd;stroke:context-stroke;stroke-width:1pt"
         d="M 0,0 5,-5 -12.5,0 5,5 Z"
         id="path211" />
    </marker>
    <marker
       style="overflow:visible"
       id="marker217"
       refX="0"
       refY="0"
       orient="auto">
      <path
         transform="matrix(0.8,0,0,0.8,10,0)"
         style="fill:context-stroke;fill-rule:evenodd;stroke:context-stroke;stroke-width:1pt"
         d="M 0,0 5,-5 -12.5,0 5,5 Z"
         id="path215" />
    </marker>
    <marker
       style="overflow:visible"
       id="marker221"
       refX="0"
       refY="0"
       orient="auto">
      <path
         transform="matrix(0.8,0,0,0.8,10,0)"
         style="fill:context-stroke;fill-rule:evenodd;stroke:context-stroke;stroke-width:1pt"
         d="M 0,0 5,-5 -12.5,0 5,5 Z"
         id="path219" />
    </marker>
    <marker
       style="overflow:visible"
       id="marker225"
       refX="0"
       refY="0"
       orient="auto">
      <path
         transform="matrix(0.8,0,0,0.8,10,0)"
         style="fill:context-stroke;fill-rule:evenodd;stroke:context-stroke;stroke-width:1pt"
         d="M 0,0 5,-5 -12.5,0 5,5 Z"
         id="path223" />
    </marker>
    <marker
       style="overflow:visible"
       id="marker229"
       refX="0"
       refY="0"
       orient="auto">
      <path
         transform="matrix(0.8,0,0,0.8,10,0)"
         style="fill:context-stroke;fill-rule:evenodd;stroke:context-stroke;stroke-width:1pt"
         d="M 0,0 5,-5 -12.5,0 5,5 Z"
         id="path227" />
    </marker>
    <marker
       style="overflow:visible"
       id="marker233"
       refX="0"
       refY="0"
       orient="auto">
      <path
         transform="matrix(0.8,0,0,0.8,10,0)"
         style="fill:context-stroke;fill-rule:evenodd;stroke:context-stroke;stroke-width:1pt"
         d="M 0,0 5,-5 -12.5,0 5,5 Z"
         id="path231" />
    </marker>
    <marker
       style="overflow:visible"
       id="marker237"
       refX="0"
       refY="0"
       orient="auto">
      <path
         transform="matrix(0.8,0,0,0.8,10,0)"
         style="fill:context-stroke;fill-rule:evenodd;stroke:context-stroke;stroke-width:1pt"
         d="M 0,0 5,-5 -12.5,0 5,5 Z"
         id="path235" />
    </marker>
    <marker
       style="overflow:visible"
       id="marker241"
       refX="0"
       refY="0"
       orient="auto">
      <path
         transform="matrix(0.8,0,0,0.8,10,0)"
         style="fill:context-stroke;fill-rule:evenodd;stroke:context-stroke;stroke-width:1pt"
         d="M 0,0 5,-5 -12.5,0 5,5 Z"
         id="path239" />
    </marker>
    <marker
       style="overflow:visible"
       id="marker245"
       refX="0"
       refY="0"
       orient="auto">
      <path
         transform="matrix(0.8,0,0,0.8,10,0)"
         style="fill:context-stroke;fill-rule:evenodd;stroke:context-stroke;stroke-width:1pt"
         d="M 0,0 5,-5 -12.5,0 5,5 Z"
         id="path243" />
    </marker>
  </defs>
  <g
     id="layer1">
    <g
       id="g487"
       transform="translate(9.9208238,19.77791)">
      <path
         id="rect31"
         style="fill:#f9f9f9;fill-rule:evenodd;stroke-width:0.0676423;marker-start:url(#marker2054)"
         d="m 90.304891,24.18697 0.81182,-1.299477 0.9534,1.4397 0.12071,278.453167 h -1.98452 z" />
      <path
         style="fill:#f9f9f9;fill-rule:evenodd;stroke-width:0.0995815;marker-start:url(#Arrow1Lstart)"
         d="m 318.05847,208.67065 c -0.003,0.001 -0.004,0.004 -0.005,0.004 0,-2.6e-4 0.003,-5.3e-4 0.003,-0.001 0,-0.001 -5e-5,-0.002 0.003,-0.003 z"
         id="path175862" />
      <path
         style="fill:#f9f9f9;fill-rule:evenodd;stroke-width:0.0995815;marker-start:url(#Arrow1Lstart)"
         d="m 318.1515,208.51511 c -0.005,0.006 -0.01,0.0123 -0.0114,0.0171 0,0.003 -0.003,0.006 -0.003,0.009 0.003,-0.004 0.003,-0.007 0.005,-0.0108 0.005,-0.008 0.006,-0.011 0.009,-0.015 z"
         id="path175860" />
      <path
         style="fill:#f9f9f9;fill-rule:evenodd;stroke-width:0.0995815;marker-start:url(#Arrow1Lstart)"
         d="m 318.15573,208.50892 c 0,0.002 -0.003,0.005 -0.004,0.006 0.003,-0.002 0.003,-0.004 0.004,-0.006 z"
         id="path175858" />
      <path
         style="fill:#f9f9f9;fill-rule:evenodd;stroke-width:0.0995815;marker-start:url(#Arrow1Lstart)"
         d="m 318.16287,208.49651 c -0.003,0.004 -0.005,0.009 -0.007,0.0124 0.003,-0.004 0.007,-0.0108 0.008,-0.0124 z"
         id="path175856" />
      <path
         style="fill:#f9f9f9;fill-rule:evenodd;stroke-width:0.0995815;marker-start:url(#Arrow1Lstart)"
         d="m 318.65587,207.47848 c 0,0.002 -0.004,0.006 -0.005,0.0104 0.003,-0.003 0.004,-0.007 0.005,-0.01 z"
         id="path175852" />
      <path
         style="fill:#f9f9f9;fill-rule:evenodd;stroke-width:0.0776029;marker-start:url(#Arrow1Lstart)"
         d="m 398.25722,208.91963 v -1.97002 h -50.10254 c 0.004,0.0679 0.008,0.13595 0.0129,0.20378 0.006,0.61224 0.0329,0.63995 -0.1725,1.36769 -0.0222,0.0786 -0.0528,0.14749 -0.0861,0.21383 0.0192,-0.0564 0.0397,-0.23511 0.0294,-0.17625 -0.0105,0.0599 -0.0212,0.11996 -0.0316,0.17996 0,5.3e-4 1.2e-4,0.001 -0.002,0.002 v -0.002 c -0.0305,0.0604 -0.062,0.11988 -0.0922,0.18101 h 0.01 c 0.0304,-0.062 0.0651,-0.13362 0.0815,-0.17732 -0.0102,0.0591 -0.0204,0.11822 -0.0306,0.17732 z"
         id="path186519" />
      <path
         style="fill:#f9f9f9;fill-rule:evenodd;stroke-width:0.0840916;marker-start:url(#Arrow1Lstart)"
         d="m 502.98101,206.99386 v 1.95854 h 129.98653 l 3.13964,0.3797 3.16545,-1.35897 -3.09416,-1.32782 -3.10564,0.34855 z"
         id="path186891" />
      <path
         style="fill:#f9f9f9;fill-rule:evenodd;stroke-width:0.0879611;marker-start:url(#Arrow1Lstart)"
         d="m 426.6308,206.99396 v 1.95504 h 51.04017 v -1.95504 z"
         id="path186515" />
      <path
         style="fill:#f9f9f9;fill-rule:evenodd;stroke-width:0.0995815;marker-start:url(#Arrow1Lstart)"
         d="m 318.98388,206.97412 v 5.3e-4 l 0.003,-5.3e-4 z"
         id="path175842" />
      <path
         style="fill:#f9f9f9;fill-rule:evenodd;stroke-width:0.0948975;marker-start:url(#Arrow1Lstart)"
         d="m 266.98998,206.97419 v 1.9249 h 50.67231 c 0,-0.003 0.002,-0.006 0.004,-0.008 0,-0.003 0.002,-0.006 0.002,-0.009 0.006,-0.0165 0.013,-0.0326 0.0221,-0.0475 0.002,0.002 0.003,0.003 0.005,0.005 v -0.006 c -0.002,-10e-4 -0.003,-0.002 -0.004,-0.003 -0.006,-0.006 -0.009,-0.01 -0.007,-0.01 0,-7e-5 0.004,10e-4 0.01,0.005 0,5.3e-4 0.002,0.001 0.003,0.002 0.002,-0.002 -0.002,-0.004 0,-0.006 0.0156,-0.0125 0.0266,-0.0297 0.038,-0.0465 v -5.3e-4 c 0,-0.009 0.003,-0.0203 0.0103,-0.032 0.004,-0.007 0.009,-0.0137 0.0137,-0.0207 0.004,-0.007 0.007,-0.0131 0.0108,-0.0202 0.002,-0.003 0.004,-0.007 0.006,-0.01 0.004,-0.007 0.005,-0.0111 0.006,-0.0134 -0.002,7.9e-4 -0.002,5.3e-4 -0.003,5.3e-4 0,-2e-4 -4e-5,-5.3e-4 0.002,-0.001 0,-2.7e-4 0.003,-10e-4 0.004,-0.002 v -5.3e-4 c 0.002,-0.001 0.002,-0.002 0.005,-0.004 v -5.2e-4 c 0.002,-5.3e-4 0.002,-0.001 0.004,-0.002 0.004,-0.008 0.008,-0.0152 0.0118,-0.0227 0.004,-0.009 0.009,-0.0152 0.0142,-0.0196 0.009,-0.0157 0.0173,-0.0314 0.0258,-0.047 v -5.3e-4 -0.001 c 0,-0.003 0.003,-0.006 0.003,-0.008 0.0132,-0.0544 0.0367,-0.10493 0.0572,-0.15666 0.002,-0.005 0.006,-0.009 0.01,-0.0134 -0.0188,0.0928 0.006,0.0313 0.0248,-0.009 v -5.3e-4 c 0,-0.001 -0.003,-1.5e-4 -0.003,-5.3e-4 -1.4e-4,-2.7e-4 0,-0.001 0,-0.002 -1.9e-4,-0.005 0,-0.01 0,-0.015 0.003,-0.0159 0.0132,-0.0265 0.024,-0.0367 0.004,-0.004 0.007,-0.007 0.0108,-0.009 -0.002,-0.0831 -0.009,-0.17435 0.0493,-0.22801 0.006,-0.005 0.0108,-0.01 0.0168,-0.0145 0.0113,-0.0334 0.029,-0.0684 0.0549,-0.11892 0.003,-0.008 0.008,-0.0176 0.0113,-0.0253 -7e-5,0.002 8e-5,0.003 0,0.005 0.006,-0.0118 0.011,-0.0226 0.0178,-0.0362 0.004,-0.008 -0.007,0.005 -0.0132,0.017 0.0519,-0.12298 0.0848,-0.18486 0.16649,-0.30763 0.013,-0.0411 0.032,-0.0794 0.0497,-0.1184 0,-0.007 5e-5,-0.0138 -0.005,-0.0207 0.0332,-0.0212 0.0692,-0.0388 0.10458,-0.0568 v -0.0129 c 0.003,-0.009 0.006,-0.0174 0.008,-0.0264 0,-0.001 -8e-5,-0.001 0.002,-0.002 0.002,-0.003 0.004,-0.008 0.006,-0.0109 0.0101,-0.0172 0.0185,-0.0354 0.0267,-0.0537 v -0.002 c 0.003,-0.006 0.006,-0.0104 0.009,-0.0145 v -0.007 c -0.0251,0.0257 -0.0363,0.0715 -0.0652,0.0935 -0.0209,0.0159 0.0241,-0.0494 0.038,-0.0729 0.0134,-0.023 0.028,-0.0457 0.0422,-0.0682 0.002,-0.007 0.003,-0.0147 0.005,-0.0207 0.0292,-0.0897 0.0569,-0.1108 0.083,-0.14167 7e-5,-2.6e-4 0,-0.002 0,-0.002 0.002,-0.009 0.003,-0.0171 0.006,-0.0243 0.002,-0.003 0.003,-0.005 0.006,-0.008 0.002,-0.001 0.004,-0.002 0.005,-0.003 -0.002,0.002 -0.006,0.008 -0.008,0.0134 v 0.006 c 0.007,-0.007 0.0274,-0.0548 0.0281,-0.0491 0.003,-0.0136 0.007,-0.0268 0.0117,-0.0398 z"
         id="path187018" />
      <path
         style="fill:#f9f9f9;fill-rule:evenodd;stroke-width:0.102107;marker-start:url(#Arrow1Lstart)"
         d="m 234.93103,206.97464 -216.711971,5.3e-4 v 1.92339 H 234.93103 Z"
         id="path175840" />
      <path
         style="fill:#f9f9f9;fill-rule:evenodd;stroke-width:0.0995815;marker-start:url(#Arrow1Lstart)"
         d="m 318.97938,206.97412 c 0,0 0,5.3e-4 0,5.3e-4 v 0 z"
         id="rect509" />
      <path
         id="path533"
         style="fill:none;stroke:#f9f9f9;stroke-width:2.11667;stroke-miterlimit:4;stroke-dasharray:none"
         d="m 292.1686,164.15193 a 29.079793,29.079793 0 0 0 -29.07988,29.07936 29.079793,29.079793 0 0 0 29.07988,29.07988 29.079793,29.079793 0 0 0 29.07987,-29.07988 29.079793,29.079793 0 0 0 -29.07987,-29.07936 z" />
      <circle
         style="fill:none;stroke:#f9f9f9;stroke-width:2.11667;stroke-miterlimit:4;stroke-dasharray:none"
         id="circle2138"
         cy="193.23148"
         cx="372.96695"
         r="29.079792" />
      <circle
         style="fill:none;stroke:#f9f9f9;stroke-width:2.11667;stroke-miterlimit:4;stroke-dasharray:none"
         id="circle2140"
         cy="193.23148"
         cx="452.14944"
         r="29.079792" />
      <path
         id="path157740"
         style="font-size:124.461px;line-height:1.25;font-family:Candara;-inkscape-font-specification:Candara;fill:#f9f9f9;stroke-width:0.311154"
         d="m 519.33315,164.78388 c -4.92035,0.11401 -10.09969,1.68538 -13.45703,5.45508 -1.89706,2.27656 -2.66872,5.29788 -2.41257,8.18576 0.2146,2.94489 1.52007,5.73551 3.72833,7.73752 3.34224,3.08744 7.74801,4.544 11.81276,6.40099 3.66631,1.65589 7.55641,2.86684 11.00036,4.97964 2.14855,1.31145 3.92714,3.2854 4.71487,5.7039 1.45015,3.89109 1.15778,8.68813 -1.65876,11.90692 -2.53762,3.01604 -6.51777,4.46012 -10.38479,4.55711 -3.67034,0.17623 -8.87954,-1.14307 -11.64943,-2.71687 -2.09725,-1.19163 -3.89369,-2.84491 -4.68774,-4.23535 -0.85012,-1.48862 -1.16693,-3.31323 -1.05559,-4.47642 0,0 -2.11345,-0.57912 -2.30225,0.22561 -0.001,1.44773 -0.0161,3.22522 1.24522,5.40625 1.06212,1.83649 2.55997,3.02539 4.13212,4.03897 1.62285,1.04626 3.67928,2.08217 5.58093,2.529 2.46606,0.57944 5.21864,0.7353 8.32646,0.81238 5.47093,-0.24139 8.9654,-1.38314 12.00461,-4.86787 1.8825,-2.24059 2.82101,-5.03976 2.9409,-7.92884 0.23337,-3.48575 -0.46724,-7.30853 -3.0289,-9.86166 -2.37787,-2.38394 -5.43449,-3.93994 -8.4447,-5.3714 -5.0958,-2.29897 -10.46063,-4.21242 -15.27671,-7.14771 -1.82769,-1.10932 -3.56977,-2.53841 -4.43101,-4.55151 -1.65258,-3.4819 -1.08241,-7.971 1.66392,-10.74386 2.9804,-3.22365 7.54553,-4.385 11.80747,-4.35466 4.92651,-0.0102 9.19488,1.48422 13.53114,3.8332 0.17383,-0.63476 0.54609,-0.87265 0.71992,-1.50742 -4.36623,-2.2309 -9.25747,-4.08918 -14.41953,-4.00872 z" />
      <path
         style="fill:none;stroke:#f9f9f9;stroke-width:2.03729;stroke-linecap:butt;stroke-linejoin:miter;stroke-miterlimit:4;stroke-dasharray:none;stroke-opacity:1"
         d="m 402.04863,192.29758 v 104.58258 c 0,0 0.0836,8.82415 -6.92067,14.8813 -4.4576,3.85481 -12.70709,5.95608 -19.74125,5.76394 -5.41521,-0.14792 -15.84609,0.40013 -22.89991,-5.11454 -3.95167,-3.08942 -8.40377,-8.64625 -8.24857,-15.5307"
         id="path162197" />
      <path
         style="fill:#f9f9f9;fill-rule:evenodd;stroke-width:0.0239823;marker-start:url(#Arrow1Lstart)"
         d="m 234.92314,208.88546 -5.3e-4,-11.65548 h -1.97285 v 11.65548 z"
         id="path187118" />
      <path
         style="fill:#f9f9f9;stroke:#fffffe;stroke-width:2.11667;stroke-linecap:butt;stroke-linejoin:miter;stroke-miterlimit:4;stroke-dasharray:none;stroke-opacity:1"
         d="M 91.490141,24.290222 88.77634,28.276734"
         id="path187302" />
      <path
         style="fill:#f9f9f9;stroke:#fffffe;stroke-width:2.11667;stroke-linecap:butt;stroke-linejoin:round;stroke-miterlimit:4;stroke-dasharray:none;stroke-opacity:1"
         d="m 90.836851,24.380833 2.66036,3.859035"
         id="path190199" />
      <path
         style="fill:#f9f9f9;stroke:#fffffe;stroke-width:2.11667;stroke-linecap:butt;stroke-linejoin:round;stroke-miterlimit:4;stroke-dasharray:none;stroke-opacity:1"
         d="m 630.75293,205.40592 5.22585,2.30612"
         id="path193660" />
      <path
         style="fill:#f9f9f9;stroke:#fffffe;stroke-width:2.11667;stroke-linecap:butt;stroke-linejoin:round;stroke-miterlimit:4;stroke-dasharray:none;stroke-opacity:1"
         d="m 630.61723,210.59707 5.22588,-2.3061"
         id="path194495" />
    </g>
  </g>
</svg>
